# xmcd
#
# Track frame offsets: 
#        150
#        17621
#        41431
#
# Disc length: 785 seconds
#
# Revision: 1
# Processed by: cddbd v1.5.2PL0 Copyright (c) Steve Scherf et al.
# Submitted via: ExactAudioCopy v0.99pb5
#
DISCID=17030f03
DTITLE=Oliver Frank - Weit, weit von hier
DYEAR=1995
DGENRE=Vocal
TTITLE0=Weit, weit von hier
TTITLE1=Weit, weit von hier (Maxi Version)
TTITLE2=Weit, weit von hier (Playback)
EXTD=
EXTT0=
EXTT1=
EXTT2=
PLAYORDER=
